<?xml version="1.0" encoding="UTF-8"?>
<svg version="1.1"  viewBox="0 0 512 512" fill="currentColor" xmlns="http://www.w3.org/2000/svg">
<path d="M0 0 C1.45108658 0.00273422 1.45108658 0.00273422 2.93148804 0.00552368 C17.26440977 0.05095174 31.21023917 0.55983928 45.3125 3.3125 C46.65803955 3.55395752 46.65803955 3.55395752 48.03076172 3.80029297 C91.63561969 11.69055147 132.77240471 31.38014943 166.3125 60.3125 C167.05757813 60.94671875 167.80265625 61.5809375 168.5703125 62.234375 C182.07529833 74.04551515 194.74668743 86.79610228 205.3125 101.3125 C206.16899066 102.46244831 207.02576433 103.61218589 207.8828125 104.76171875 C213.9234414 112.95339526 219.28255071 121.46895078 224.3125 130.3125 C224.67698242 130.94430176 225.04146484 131.57610352 225.41699219 132.22705078 C238.59268166 155.24671301 247.27606895 180.76595449 252.625 206.6875 C252.77243652 207.39817627 252.91987305 208.10885254 253.07177734 208.84106445 C256.05713787 224.48358366 256.6873098 240.11919606 256.625 256 C256.62226578 257.45108658 256.62226578 257.45108658 256.61947632 258.93148804 C256.57404826 273.26440977 256.06516072 287.21023917 253.3125 301.3125 C253.15152832 302.20952637 252.99055664 303.10655273 252.82470703 304.03076172 C244.93444853 347.63561969 225.24485057 388.77240471 196.3125 422.3125 C195.67828125 423.05757813 195.0440625 423.80265625 194.390625 424.5703125 C182.57948485 438.07529833 169.82889772 450.74668743 155.3125 461.3125 C154.16255169 462.16899066 153.01281411 463.02576433 151.86328125 463.8828125 C143.67160474 469.9234414 135.15604922 475.28255071 126.3125 480.3125 C125.68069824 480.67698242 125.04889648 481.04146484 124.39794922 481.41699219 C101.37828699 494.59268166 75.85904551 503.27606895 49.9375 508.625 C49.22682373 508.77243652 48.51614746 508.91987305 47.78393555 509.07177734 C32.14141634 512.05713787 16.50580394 512.6873098 0.625 512.625 C-0.34239105 512.62317719 -1.3097821 512.62135437 -2.30648804 512.61947632 C-16.63940977 512.57404826 -30.58523917 512.06516072 -44.6875 509.3125 C-45.58452637 509.15152832 -46.48155273 508.99055664 -47.40576172 508.82470703 C-91.01061969 500.93444853 -132.14740471 481.24485057 -165.6875 452.3125 C-166.43257813 451.67828125 -167.17765625 451.0440625 -167.9453125 450.390625 C-181.45029833 438.57948485 -194.12168743 425.82889772 -204.6875 411.3125 C-205.54399066 410.16255169 -206.40076433 409.01281411 -207.2578125 407.86328125 C-213.2984414 399.67160474 -218.65755071 391.15604922 -223.6875 382.3125 C-224.05198242 381.68069824 -224.41646484 381.04889648 -224.79199219 380.39794922 C-237.96768166 357.37828699 -246.65106895 331.85904551 -252 305.9375 C-252.14743652 305.22682373 -252.29487305 304.51614746 -252.44677734 303.78393555 C-255.43213787 288.14141634 -256.0623098 272.50580394 -256 256.625 C-255.99817719 255.65760895 -255.99635437 254.6902179 -255.99447632 253.69351196 C-255.94904826 239.36059023 -255.44016072 225.41476083 -252.6875 211.3125 C-252.44604248 209.96696045 -252.44604248 209.96696045 -252.19970703 208.59423828 C-244.30944853 164.98938031 -224.61985057 123.85259529 -195.6875 90.3125 C-195.05328125 89.56742187 -194.4190625 88.82234375 -193.765625 88.0546875 C-181.95448485 74.54970167 -169.20389772 61.87831257 -154.6875 51.3125 C-153.53755169 50.45600934 -152.38781411 49.59923567 -151.23828125 48.7421875 C-143.04660474 42.7015586 -134.53104922 37.34244929 -125.6875 32.3125 C-125.05569824 31.94801758 -124.42389648 31.58353516 -123.77294922 31.20800781 C-100.75328699 18.03231834 -75.23404551 9.34893105 -49.3125 4 C-48.60182373 3.85256348 -47.89114746 3.70512695 -47.15893555 3.55322266 C-31.51641634 0.56786213 -15.88080394 -0.0623098 0 0 Z M-74.6875 171.3125 C-80.04561727 176.28269927 -83.25707278 181.86834092 -83.97047234 189.23418808 C-84.08427031 192.76637601 -84.10422635 196.28775286 -84.09155273 199.82177734 C-84.0972639 201.17617859 -84.10423104 202.53057504 -84.11235046 203.88496399 C-84.13021627 207.54420597 -84.12912582 211.20320728 -84.12340808 214.86247969 C-84.12030617 217.9263656 -84.12641989 220.99020596 -84.13244683 224.05408537 C-84.1464693 231.28739794 -84.14495025 238.52059236 -84.13354492 245.75390625 C-84.12207017 253.19529801 -84.13613355 260.63632908 -84.1629414 268.07767332 C-84.18515486 274.48560687 -84.19172298 280.89342767 -84.18586498 287.30139697 C-84.18250714 291.12018197 -84.18483163 294.93873593 -84.20211601 298.75748825 C-84.21767326 302.35116573 -84.21353372 305.94431241 -84.19481087 309.53796959 C-84.18941493 311.47066977 -84.20357273 313.40339429 -84.21850586 315.33604431 C-84.14560031 324.0228541 -82.74796583 331.54817818 -77.4375 338.625 C-70.70779763 345.20175459 -64.14343397 347.81284695 -54.6875 348.3125 C-46.52870476 347.80017377 -39.87042065 343.92855726 -34.375 338 C-27.95212042 330.69374443 -28.25085839 321.86199804 -28.28344727 312.69555664 C-28.27773628 311.32968083 -28.27076921 309.96380978 -28.26264954 308.59794617 C-28.24478346 304.90778117 -28.24587402 301.21785482 -28.25159192 297.52765965 C-28.25469325 294.43882633 -28.24858087 291.35003821 -28.24255317 288.26121134 C-28.22853113 280.97040759 -28.23004989 273.67972108 -28.24145508 266.38891602 C-28.25293471 258.88502148 -28.23885814 251.38148442 -28.2120586 243.87763697 C-28.18985791 237.417915 -28.18327401 230.95830488 -28.18913502 224.49854749 C-28.19249531 220.64793705 -28.1901517 216.79755572 -28.17288399 212.94697762 C-28.15734681 209.32457733 -28.1614444 205.70270415 -28.18018913 202.08032417 C-28.18559509 200.12953989 -28.17141265 198.17873155 -28.15649414 196.22799683 C-28.24099589 186.098993 -30.38043037 178.61956963 -37.6875 171.3125 C-48.80302538 161.9847864 -63.58969574 162.4623523 -74.6875 171.3125 Z M37.3125 172.3125 C29.45963708 181.3902753 29.01480666 190.74811755 29.05371094 202.28686523 C29.0502063 203.5708017 29.04670166 204.85473816 29.04309082 206.17758179 C29.03401942 209.67970566 29.0374895 213.18171091 29.04384899 216.6838367 C29.04893738 220.36182378 29.04420958 224.03980118 29.04107666 227.7177887 C29.0374448 233.89366465 29.04221512 240.06949267 29.05175781 246.24536133 C29.06263605 253.36743911 29.05911825 260.48940232 29.048105 267.61147732 C29.03900408 273.74422252 29.03776067 279.87693341 29.04298234 286.00968319 C29.04608728 289.66460582 29.04655234 293.31947475 29.03990936 296.97439384 C29.03301404 301.05257735 29.04259431 305.13056604 29.05371094 309.20874023 C29.04966248 310.40746262 29.04561401 311.606185 29.04144287 312.8412323 C29.09444161 323.36545702 30.17424679 332.14572428 37.3125 340.3125 C43.41125002 345.96441091 50.08429177 347.97149137 58.3125 348.3125 C66.49708997 347.78487706 73.15462724 343.93335192 78.625 337.9375 C83.9397929 331.2795665 85.43134672 324.06758426 85.44621277 315.7162323 C85.45047775 314.62715073 85.45474274 313.53806915 85.45913696 312.41598511 C85.45868378 311.23610016 85.45823059 310.05621521 85.45776367 308.84057617 C85.46112228 307.58619247 85.4644809 306.33180878 85.46794128 305.03941345 C85.4757988 301.60950321 85.47911801 298.17965351 85.47975707 294.74973845 C85.48046952 292.60316381 85.48260752 290.45659544 85.48525429 288.31002235 C85.49449705 280.81076278 85.49859056 273.31152094 85.49780273 265.81225586 C85.49720238 258.83905233 85.50774859 251.86592627 85.5235464 244.89274234 C85.53665386 238.89167742 85.54198528 232.89063772 85.54134732 226.88955861 C85.54109326 223.31172764 85.54389365 219.73396554 85.55452538 216.15614891 C85.56607217 212.16158185 85.56143997 208.16718665 85.55541992 204.17260742 C85.56103943 202.99879517 85.56665894 201.82498291 85.57244873 200.61560059 C85.5313811 189.86973489 84.31202629 180.6413559 76.67578125 172.5859375 C64.89725732 161.8396887 49.17949997 161.85080265 37.3125 172.3125 Z " transform="translate(255.6875,-0.3125)"/>
</svg>
