<?xml version="1.0" encoding="UTF-8"?>
<svg version="1.1" viewBox="0 0 512 512" fill="currentColor" xmlns="http://www.w3.org/2000/svg">
<path d="M0 0 C7.53322439 4.70236763 12.90327826 10.40583805 15.40222073 18.99311447 C15.90590432 21.3294366 16.01021975 23.43573675 16.02931213 25.82501221 C16.04399536 27.22159561 16.04399536 27.22159561 16.05897522 28.64639282 C16.06473068 29.66059296 16.07048615 30.67479309 16.07641602 31.71972656 C16.08631561 32.79320343 16.09621521 33.8666803 16.10641479 34.97268677 C16.13801097 38.5221333 16.16277991 42.07159322 16.1875 45.62109375 C16.20807114 48.08160755 16.22906766 50.54211783 16.25047302 53.00262451 C16.3056771 59.47987008 16.35509379 65.95714746 16.40332031 72.43444824 C16.45354743 79.04356722 16.50922719 85.65263999 16.56445312 92.26171875 C16.67201437 105.23042901 16.77364905 118.19917873 16.87109375 131.16796875 C17.36956314 130.80787216 17.86803253 130.44777557 18.38160706 130.07676697 C20.691859 128.40788553 23.00217924 126.73909867 25.3125 125.0703125 C26.09612915 124.50421265 26.8797583 123.93811279 27.68713379 123.3548584 C32.43670066 119.92427641 37.18866197 116.49704943 41.94334507 113.07356167 C48.78437966 108.14759914 55.59057538 103.17688812 62.37109375 98.16796875 C70.75057833 91.97785756 79.18216738 85.86322566 87.63720703 79.77685547 C91.38469144 77.07784757 95.12770576 74.37265381 98.87109375 71.66796875 C103.35719754 68.42665422 107.84414206 65.18654921 112.3359375 61.953125 C120.04572348 56.39992251 127.72867006 50.8135967 135.37109375 45.16796875 C143.74895216 38.97905885 152.17917132 32.86609505 160.6328125 26.78125 C162.89175582 25.15307619 165.14752036 23.5205925 167.40234375 21.88671875 C171.13504832 19.18202326 174.87368751 16.48571428 178.61572266 13.79394531 C180.15136563 12.68684614 181.68481302 11.57669657 183.21630859 10.46386719 C185.51286854 8.79563385 187.81623963 7.13721631 190.12109375 5.48046875 C190.81211182 4.97507568 191.50312988 4.46968262 192.21508789 3.94897461 C200.3382918 -1.85531296 207.95255796 -3.00201794 217.87109375 -1.83203125 C226.43935244 0.80976481 232.37128124 5.42128553 236.87109375 13.16796875 C238.68342478 17.01038005 239.12276175 20.03487758 239.12836266 24.27099991 C239.13481155 25.5050435 239.14126044 26.73908709 239.14790475 28.01052594 C239.14496258 29.37699248 239.14182715 30.74345861 239.13851929 32.10992432 C239.14225597 33.56388229 239.14685757 35.01783825 239.15224993 36.47179103 C239.1644933 40.46789734 239.16421789 44.46392002 239.16186118 48.46004081 C239.16145335 52.7696536 239.17248901 57.07923945 239.18197632 61.38883972 C239.19859497 69.83277707 239.20408627 78.2766865 239.20520107 86.72063884 C239.20615121 93.58448216 239.21025975 100.44831627 239.21660233 107.31215668 C239.23421764 126.77117717 239.24344082 146.2301756 239.24194138 165.68920413 C239.24182151 167.26303099 239.24182151 167.26303099 239.24169922 168.86865234 C239.24161746 169.91915106 239.2415357 170.96964977 239.24145146 172.05198178 C239.24063863 189.07521927 239.2597747 206.09836826 239.28797595 223.12158015 C239.31670236 240.59969002 239.33051636 258.07775672 239.3287884 275.5558908 C239.32812438 285.36898646 239.33362182 295.18198937 239.3551445 304.99506378 C239.37335316 313.35073658 239.37770628 321.70627459 239.36412565 330.06195864 C239.35759421 334.32436359 239.35748505 338.58650993 239.37483215 342.8488903 C239.39056044 346.75371245 239.38770201 350.65807086 239.37026389 354.56288168 C239.36719341 355.97271013 239.37082827 357.38257316 239.38198404 358.79236081 C239.45234826 368.31819704 238.14486028 374.75366256 233.24609375 382.85546875 C227.08342465 388.85596235 219.99593052 392.29046639 211.43359375 392.60546875 C196.86920605 392.38254445 186.4271263 382.40979586 175.31591797 374.00390625 C171.51791192 371.15179865 167.66544769 368.37719973 163.80859375 365.60546875 C162.31639372 364.5299653 160.82420622 363.45444447 159.33203125 362.37890625 C157.84513854 361.30847364 156.35815945 360.23816102 154.87109375 359.16796875 C144.86558977 351.96733667 134.89420897 344.72546089 124.97900391 337.40087891 C116.65606626 331.25877241 108.2667716 325.21006192 99.87109375 319.16796875 C89.86558977 311.96733667 79.89420897 304.72546089 69.97900391 297.40087891 C62.40617551 291.81233308 54.77868304 286.30143523 47.14013672 280.80322266 C44.78909848 279.1088764 42.4410415 277.41047003 40.09375 275.7109375 C38.90761108 274.85254272 38.90761108 274.85254272 37.69750977 273.97680664 C36.20934326 272.89968581 34.72151719 271.82209439 33.23413086 270.74389648 C29.37920303 267.95588899 25.50279515 265.20178809 21.60351562 262.47607422 C20.71402222 261.85409149 19.82452881 261.23210876 18.90808105 260.59127808 C18.23587524 260.121586 17.56366943 259.65189392 16.87109375 259.16796875 C16.86889391 260.00450768 16.86889391 260.00450768 16.86664963 260.8579464 C16.82950413 274.46428236 16.77013758 288.0703677 16.68719101 301.67650414 C16.64774189 308.25651396 16.61554057 314.83639047 16.60009766 321.41650391 C16.58491457 327.77090448 16.55043865 334.12493846 16.50278473 340.47917557 C16.48798816 342.89912346 16.48005373 345.31912369 16.4792099 347.73911667 C16.47683342 351.13815801 16.44969688 354.53619186 16.41699219 357.93505859 C16.42202255 358.92768707 16.42705292 359.92031555 16.43223572 360.94302368 C16.28997576 370.54750154 13.40352457 378.44102208 6.80859375 385.4765625 C1.27214228 390.30979533 -5.05928848 392.31587565 -12.31640625 392.41796875 C-13.40308594 392.44375 -14.48976563 392.46953125 -15.609375 392.49609375 C-23.59807714 391.75130909 -29.21963947 388.03422359 -35.50390625 383.29296875 C-37.09487123 382.11824461 -38.68602231 380.94377247 -40.27734375 379.76953125 C-41.08268555 379.17043945 -41.88802734 378.57134766 -42.71777344 377.95410156 C-46.49534715 375.15572881 -50.31293572 372.41361118 -54.12890625 369.66796875 C-55.63040151 368.58360077 -57.13170321 367.49896473 -58.6328125 366.4140625 C-61.61799733 364.25791576 -64.60512013 362.10449371 -67.59375 359.953125 C-76.10811306 353.82040196 -84.58106827 347.63564086 -93.02099609 341.40087891 C-100.60559465 335.80364701 -108.24478955 330.28388248 -115.89501953 324.77685547 C-120.39413794 321.5365068 -124.88714744 318.28769173 -129.38134766 315.04052734 C-133.11685125 312.34198853 -136.85372105 309.64538922 -140.59375 306.953125 C-149.10811306 300.82040196 -157.58106827 294.63564086 -166.02099609 288.40087891 C-173.60559465 282.80364701 -181.24478955 277.28388248 -188.89501953 271.77685547 C-193.39413794 268.5365068 -197.88714744 265.28769173 -202.38134766 262.04052734 C-206.11685125 259.34198853 -209.85372105 256.64538922 -213.59375 253.953125 C-222.10016458 247.82612709 -230.57322307 241.65754852 -238.99462891 235.4140625 C-243.00583917 232.44561782 -247.03671716 229.51330803 -251.1171875 226.640625 C-251.92671875 226.06763672 -252.73625 225.49464844 -253.5703125 224.90429688 C-255.09743616 223.82625324 -256.62963695 222.75534808 -258.16796875 221.69335938 C-265.16164686 216.7432885 -271.45519622 210.92064905 -273.12890625 202.16796875 C-274.06699988 192.84957202 -273.90223136 184.83824354 -268.12890625 177.16796875 C-261.31619965 169.44898467 -251.87321817 163.80508528 -243.52392578 157.87353516 C-239.71113347 155.15832954 -235.92078394 152.41226552 -232.12890625 149.66796875 C-230.62774179 148.58314287 -229.12643947 147.49850773 -227.625 146.4140625 C-226.88233887 145.87765137 -226.13967773 145.34124023 -225.37451172 144.78857422 C-223.1388518 143.17514624 -220.90166109 141.56386297 -218.6640625 139.953125 C-210.95427652 134.39992251 -203.27132994 128.8135967 -195.62890625 123.16796875 C-187.24942167 116.97785756 -178.81783262 110.86322566 -170.36279297 104.77685547 C-166.61530856 102.07784757 -162.87229424 99.37265381 -159.12890625 96.66796875 C-154.64280246 93.42665422 -150.15585794 90.18654921 -145.6640625 86.953125 C-137.95427652 81.39992251 -130.27132994 75.8135967 -122.62890625 70.16796875 C-114.24942167 63.97785756 -105.81783262 57.86322566 -97.36279297 51.77685547 C-93.61530856 49.07784757 -89.87229424 46.37265381 -86.12890625 43.66796875 C-81.64280246 40.42665422 -77.15585794 37.18654921 -72.6640625 33.953125 C-65.66995832 28.91510915 -58.69293755 23.85747106 -51.7644043 18.72949219 C-39.22527777 9.45051355 -39.22527777 9.45051355 -32.87890625 4.98046875 C-31.925 4.30628906 -30.97109375 3.63210937 -29.98828125 2.9375 C-21.14485195 -2.53527797 -9.80651927 -4.4920185 0 0 Z " transform="translate(273.12890625,60.83203125)"/>
</svg>
    